<svg enable-background="new 0 0 128 128" viewBox="0 0 128 128" xmlns="http://www.w3.org/2000/svg" xmlns:xlink="http://www.w3.org/1999/xlink"><linearGradient id="a" gradientUnits="userSpaceOnUse" x1="64" x2="64" y1="4.378" y2="123.54"><stop offset="0" stop-color="#fff"/><stop offset="1" stop-color="#c8c9ca"/></linearGradient><linearGradient id="b" gradientUnits="userSpaceOnUse" x1="24.579" x2="24.579" y1="55.294" y2="123.33"><stop offset=".0051509" stop-color="#4480f7"/><stop offset="1" stop-color="#3462bd"/></linearGradient><linearGradient id="c" gradientUnits="userSpaceOnUse" x1="50.614" x2="50.614" y1="80.634" y2="124"><stop offset=".0051509" stop-color="#ec4431"/><stop offset=".3002" stop-color="#e74330"/><stop offset=".6329" stop-color="#da3f2d"/><stop offset=".9828" stop-color="#c33828"/><stop offset="1" stop-color="#c23828"/></linearGradient><linearGradient id="d" gradientUnits="userSpaceOnUse" x1="76.648" x2="76.648" y1="33.696" y2="124"><stop offset=".0051509" stop-color="#fdd835"/><stop offset=".2697" stop-color="#f9d534"/><stop offset=".5326" stop-color="#edcb32"/><stop offset=".7941" stop-color="#d9ba2d"/><stop offset="1" stop-color="#c4a829"/></linearGradient><linearGradient id="e" gradientUnits="userSpaceOnUse" x1="102.68" x2="102.68" y1="99.1" y2="124"><stop offset=".0079082" stop-color="#2ca94f"/><stop offset=".9969" stop-color="#207a39"/></linearGradient><path d="m4 4h120v120h-120z" fill="url(#a)"/><g fill="none" stroke="#bdbdbd" stroke-miterlimit="10"><path d="m4 4h120v120h-120z"/><path d="m4 104h120"/><path d="m4 84h120"/><path d="m4 64h120"/><path d="m4 44h120"/><path d="m4 24h120"/><path d="m104 4v120"/><path d="m84 4v120"/><path d="m64 4v120"/><path d="m44 4v120"/><path d="m24 4v120"/></g><path d="m15.29 54.72h18.58v69.28h-18.58z" fill="url(#b)"/><path d="m41.32 80.63h18.58v43.37h-18.58z" fill="url(#c)"/><path d="m67.36 33.7h18.58v90.3h-18.58z" fill="url(#d)"/><path d="m93.39 99.1h18.58v24.9h-18.58z" fill="url(#e)"/><path d="m121 7v114h-114v-114zm3-3h-120v120h120z" fill="#424242" opacity=".2"/></svg>