<svg fill="none" height="24" viewBox="0 0 24 24" width="24" xmlns="http://www.w3.org/2000/svg"><g clip-rule="evenodd" fill="#47495f" fill-rule="evenodd"><path d="m4.5 7c0-1.38071 1.11929-2.5 2.5-2.5h10c1.3807 0 2.5 1.11929 2.5 2.5v10c0 1.3807-1.1193 2.5-2.5 2.5h-10c-1.38071 0-2.5-1.1193-2.5-2.5zm2.5-1.5c-.82843 0-1.5.67157-1.5 1.5v10c0 .8284.67157 1.5 1.5 1.5h10c.8284 0 1.5-.6716 1.5-1.5v-10c0-.82843-.6716-1.5-1.5-1.5z"/><path d="m10.4473 9.77639c-.0847-.16939-.2578-.27639-.4472-.27639-.18938 0-.36251.107-.4472.27639l-2 4.00001c-.1235.247-.02339.5473.2236.6708s.54733.0234.67082-.2236l.36181-.7236h2.38197l.3618.7236c.1235.247.4238.3471.6708.2236s.3471-.4238.2236-.6708zm.2438 2.72361-.691-1.382-.69097 1.382z"/><path d="m15 9.5c.2761 0 .5.22386.5.5v4c0 .2761-.2239.5-.5.5s-.5-.2239-.5-.5v-4c0-.27614.2239-.5.5-.5z"/></g></svg>