<svg fill="none" height="24" viewBox="0 0 24 24" width="24" xmlns="http://www.w3.org/2000/svg"><g stroke="#141b34" stroke-width="1.5"><path d="m2.5 12c0-4.47834 0-6.71751 1.39124-8.10876 1.39125-1.39124 3.63042-1.39124 8.10876-1.39124 4.4783 0 6.7175 0 8.1088 1.39124 1.3912 1.39125 1.3912 3.63042 1.3912 8.10876 0 4.4783 0 6.7175-1.3912 8.1088-1.3913 1.3912-3.6305 1.3912-8.1088 1.3912-4.47834 0-6.71751 0-8.10876-1.3912-1.39124-1.3913-1.39124-3.6305-1.39124-8.1088z"/><g stroke-linecap="round"><path d="m8.41465 10c-.20592-.5826-.76154-1-1.41465-1-.82843 0-1.5.67157-1.5 1.5 0 .8284.67157 1.5 1.5 1.5s1.5.6716 1.5 1.5-.67157 1.5-1.5 1.5c-.65311 0-1.20873-.4174-1.41465-1"/><path d="m12.5 15c-.8284 0-1.5-.6716-1.5-1.5v-3c0-.82843.6716-1.5 1.5-1.5s1.5.67157 1.5 1.5v3c0 .8284-.6716 1.5-1.5 1.5zm0 0 1.5 1.5"/><path d="m16.5 9v4c0 .9428 0 1.4142.2929 1.7071s.7643.2929 1.7071.2929"/></g></g></svg>